<svg version="1.1" xmlns="http://www.w3.org/2000/svg" viewBox="0 0 200 200">
  <path fill="currentColor" d="M183.239964609 3.54507000111e-06C183.239964609 3.54507000111e-06 16.7600436956 3.54507000111e-06 16.7600436956 3.54507000111e-06C7.50455788139 3.54507000111e-06 3.76016998871e-06 7.50357565188 3.76016998871e-06 16.7600434805C3.76016998871e-06 16.7600434805 3.76016998871e-06 183.239964393 3.76016998871e-06 183.239964393C3.76016998871e-06 192.495450208 7.50357586698 200.000004329 16.7600436956 200.000004329C16.7600436956 200.000004329 183.239964609 200.000004329 183.239964609 200.000004329C192.495450423 200.000004329 200.000004544 192.496432222 200.000004544 183.239964393C200.000004544 183.239964393 200.000004544 16.7590614661 200.000004544 16.7590614661C200.000004544 7.50357565188 192.496432437 3.54507000111e-06 183.239964609 3.54507000111e-06C183.239964609 3.54507000111e-06 183.239964609 3.54507000111e-06 183.239964609 3.54507000111e-06M184.999999575 184.99999936C184.999999575 184.99999936 14.9999989089 184.99999936 14.9999989089 184.99999936C14.9999989089 184.99999936 14.9999989089 14.9999986938 14.9999989089 14.9999986938C14.9999989089 14.9999986938 184.999999575 14.9999986938 184.999999575 14.9999986938C184.999999575 14.9999986938 184.999999575 184.99999936 184.999999575 184.99999936" />
</svg>