<svg version="1.1" xmlns="http://www.w3.org/2000/svg" viewBox="0 0 200 200">
  <g fill="currentColor">
    <path d="M155.699998969 58.0899955729C149.155854941 51.5458515447 142.894128437 55.8968529709 136.349002394 62.4409969992C136.349002394 62.4409969992 84.8504973094 113.939502084 84.8504973094 113.939502084C84.8504973094 113.939502084 62.5330021443 91.6219970988 62.5330021443 91.6219970988C55.9868940873 85.0768710561 49.7271217919 80.7258696299 43.1819957492 87.2709956725C36.6368697066 93.8151397008 40.9878711328 100.076876025 47.5329971755 106.622002068C47.5329971755 106.622002068 77.3504997351 136.439504627 77.3504997351 136.439504627C83.8897336913 142.978738583 85.8063606757 142.98463067 92.3505047039 136.439504627C92.3505047039 136.439504627 151.348997543 77.441001968 151.348997543 77.441001968C157.894123586 70.8968579398 162.245125012 64.6351216156 155.699998969 58.0899955729C155.699998969 58.0899955729 155.699998969 58.0899955729 155.699998969 58.0899955729" />
    <path d="M183.239964609 3.54507000111e-06C183.239964609 3.54507000111e-06 16.7600436956 3.54507000111e-06 16.7600436956 3.54507000111e-06C7.50455788139 3.54507000111e-06 3.76016998871e-06 7.50357565188 3.76016998871e-06 16.7600434805C3.76016998871e-06 16.7600434805 3.76016998871e-06 183.239964393 3.76016998871e-06 183.239964393C3.76016998871e-06 192.495450208 7.50357586698 200.000004329 16.7600436956 200.000004329C16.7600436956 200.000004329 183.239964609 200.000004329 183.239964609 200.000004329C192.495450423 200.000004329 200.000004544 192.496432222 200.000004544 183.239964393C200.000004544 183.239964393 200.000004544 16.7590614661 200.000004544 16.7590614661C200.000004544 7.50357565188 192.496432437 3.54507000111e-06 183.239964609 3.54507000111e-06C183.239964609 3.54507000111e-06 183.239964609 3.54507000111e-06 183.239964609 3.54507000111e-06M180.000004466 180.000004251C180.000004466 180.000004251 20.0000038386 180.000004251 20.0000038386 180.000004251C20.0000038386 180.000004251 20.0000038386 20.0000036235 20.0000038386 20.0000036235C20.0000038386 20.0000036235 180.000004466 20.0000036235 180.000004466 20.0000036235C180.000004466 20.0000036235 180.000004466 180.000004251 180.000004466 180.000004251" />
  </g>
</svg>